<svg width="88" height="106" viewBox="0 0 88 106" fill="none" xmlns="http://www.w3.org/2000/svg">
<path fill-rule="evenodd" clip-rule="evenodd" d="M0 0H17.52V17.52V35.04V52.56H0V35.04V17.52V0ZM35.0405 17.52H17.5205V35.04V52.56H35.0405V35.04V17.52ZM35.0498 17.52H52.5698V35.04V52.56H35.0498V35.04V17.52ZM52.5703 35.04H70.0903V52.56H52.5703V35.04ZM87.6206 35.04H70.1006V52.56H87.6206V35.04ZM0 52.57H17.52V70.09V87.61H0V70.09V52.57ZM35.0405 52.57H17.5205V70.09V87.61H35.0405V70.09V52.57ZM35.0498 52.57H52.5698V70.09V87.61H35.0498V70.09V52.57ZM70.0903 52.57H52.5703V70.09H70.0903V52.57ZM70.1006 52.57H87.6206V70.09H70.1006V52.57ZM0 87.62H17.52V105.14H0V87.62Z" fill="#FFFDFF"/>
</svg>
