<svg width="88" height="106" viewBox="0 0 88 106" fill="none" xmlns="http://www.w3.org/2000/svg">
<path fill-rule="evenodd" clip-rule="evenodd" d="M87.6206 105.14L70.1006 105.14L70.1006 87.62L70.1006 70.1L70.1006 52.58L87.6206 52.58L87.6206 70.1L87.6206 87.62L87.6206 105.14ZM52.5801 87.62L70.1001 87.62L70.1001 70.1L70.1001 52.58L52.5801 52.58L52.5801 70.1L52.5801 87.62ZM52.5708 87.62L35.0508 87.62L35.0508 70.1L35.0508 52.58L52.5708 52.58L52.5708 70.1L52.5708 87.62ZM35.0503 70.1L17.5303 70.1L17.5303 52.58L35.0503 52.58L35.0503 70.1ZM3.06329e-06 70.1L17.52 70.1L17.52 52.58L4.59494e-06 52.58L3.06329e-06 70.1ZM87.6206 52.57L70.1006 52.57L70.1006 35.05L70.1006 17.53L87.6206 17.53L87.6206 35.05L87.6206 52.57ZM52.5801 52.57L70.1001 52.57L70.1001 35.05L70.1001 17.53L52.5801 17.53L52.5801 35.05L52.5801 52.57ZM52.5708 52.57L35.0508 52.57L35.0508 35.05L35.0508 17.53L52.5708 17.53L52.5708 35.05L52.5708 52.57ZM17.5303 52.57L35.0503 52.57L35.0503 35.05L17.5303 35.05L17.5303 52.57ZM17.52 52.57L4.59582e-06 52.57L6.12746e-06 35.05L17.52 35.05L17.52 52.57ZM87.6206 17.52L70.1006 17.52L70.1006 -1.53165e-06L87.6206 0L87.6206 17.52Z" fill="#FFFDFF"/>
</svg>
