<svg width="803" height="81" viewBox="0 0 803 81" fill="none" xmlns="http://www.w3.org/2000/svg">
<mask id="path-1-outside-1_172_7496" maskUnits="userSpaceOnUse" x="13" y="9" width="787" height="70" fill="black">
<rect fill="white" x="13" y="9" width="787" height="70"/>
<path d="M55.89 25.235H128.71L132.45 33.045V33.1L135.035 38.545L123.32 57.135H123.43L118.48 65H38.95L58.42 34.09L62.765 39.535L59.41 32.605L55.89 25.235ZM93.785 57.135L109.02 33.1H90.54L76.405 55.43L63.535 57.135H93.785ZM148.101 57.135H177.856L173.456 47.95L162.731 55.21L148.101 57.135ZM209.261 65H120.161L165.151 34.42L169.881 40.415L166.581 33.485L162.621 25.235H190.231L209.261 65ZM229.806 25.235H269.406L278.811 44.925L283.596 55.1L281.616 47.015L281.066 44.705L293.331 25.235H317.916L292.781 65H260.771L257.416 58.015H257.471L249.606 41.35L251.586 49.435L252.301 52.295L244.271 65H212.866L232.336 34.09L236.681 39.535L233.326 32.605L229.806 25.235ZM319.395 25.235H400.85L395.9 33.1H354.045L338.81 57.135H357.29L361.855 49.875L358.115 42.01H390.29L392.875 47.455L386.77 57.135H386.935L381.985 65H310.595L307.075 57.63L321.925 34.09L326.215 39.535L322.915 32.605L319.395 25.235ZM403.13 25.235H484.585L479.635 33.1H437.78L432.115 42.01H464.675L459.725 49.875H427.165L423.645 55.43L410.775 57.135H470.67L465.72 65H394.33L390.81 57.63L405.66 34.09L409.95 39.535L406.65 32.605L403.13 25.235ZM486.813 25.235H568.323L570.963 30.68L558.808 49.875H550.778L557.983 65H530.373L523.883 51.415L523.168 49.875H510.848L501.278 65H469.873L489.343 34.09L493.688 39.535L490.333 32.605L486.813 25.235ZM535.378 40.305L539.943 33.1H521.463L515.798 42.01H546.103L535.378 40.305ZM631.678 25.235H671.278L649.553 53.12H626.123L634.978 35.08L638.553 39.535L635.198 32.605V32.55L631.678 25.235ZM619.688 57.135H651.148L646.198 65H614.738L619.688 57.135ZM681.253 25.235H720.853L699.128 53.12H675.698L684.553 35.08L688.128 39.535L684.773 32.605V32.55L681.253 25.235ZM669.263 57.135H700.723L695.773 65H664.313L669.263 57.135ZM730.829 25.235H770.429L748.704 53.12H725.274L734.129 35.08L737.704 39.535L734.349 32.605V32.55L730.829 25.235ZM718.839 57.135H750.299L745.349 65H713.889L718.839 57.135Z"/>
</mask>
<path d="M55.89 25.235H128.71L132.45 33.045V33.1L135.035 38.545L123.32 57.135H123.43L118.48 65H38.95L58.42 34.09L62.765 39.535L59.41 32.605L55.89 25.235ZM93.785 57.135L109.02 33.1H90.54L76.405 55.43L63.535 57.135H93.785ZM148.101 57.135H177.856L173.456 47.95L162.731 55.21L148.101 57.135ZM209.261 65H120.161L165.151 34.42L169.881 40.415L166.581 33.485L162.621 25.235H190.231L209.261 65ZM229.806 25.235H269.406L278.811 44.925L283.596 55.1L281.616 47.015L281.066 44.705L293.331 25.235H317.916L292.781 65H260.771L257.416 58.015H257.471L249.606 41.35L251.586 49.435L252.301 52.295L244.271 65H212.866L232.336 34.09L236.681 39.535L233.326 32.605L229.806 25.235ZM319.395 25.235H400.85L395.9 33.1H354.045L338.81 57.135H357.29L361.855 49.875L358.115 42.01H390.29L392.875 47.455L386.77 57.135H386.935L381.985 65H310.595L307.075 57.63L321.925 34.09L326.215 39.535L322.915 32.605L319.395 25.235ZM403.13 25.235H484.585L479.635 33.1H437.78L432.115 42.01H464.675L459.725 49.875H427.165L423.645 55.43L410.775 57.135H470.67L465.72 65H394.33L390.81 57.63L405.66 34.09L409.95 39.535L406.65 32.605L403.13 25.235ZM486.813 25.235H568.323L570.963 30.68L558.808 49.875H550.778L557.983 65H530.373L523.883 51.415L523.168 49.875H510.848L501.278 65H469.873L489.343 34.09L493.688 39.535L490.333 32.605L486.813 25.235ZM535.378 40.305L539.943 33.1H521.463L515.798 42.01H546.103L535.378 40.305ZM631.678 25.235H671.278L649.553 53.12H626.123L634.978 35.08L638.553 39.535L635.198 32.605V32.55L631.678 25.235ZM619.688 57.135H651.148L646.198 65H614.738L619.688 57.135ZM681.253 25.235H720.853L699.128 53.12H675.698L684.553 35.08L688.128 39.535L684.773 32.605V32.55L681.253 25.235ZM669.263 57.135H700.723L695.773 65H664.313L669.263 57.135ZM730.829 25.235H770.429L748.704 53.12H725.274L734.129 35.08L737.704 39.535L734.349 32.605V32.55L730.829 25.235ZM718.839 57.135H750.299L745.349 65H713.889L718.839 57.135Z" fill="#EEEEEE"/>
<path d="M55.89 25.235V11.235H33.6886L43.2569 31.2687L55.89 25.235ZM128.71 25.235L141.337 19.1883L137.528 11.235H128.71V25.235ZM132.45 33.045H146.45V29.8658L145.077 26.9983L132.45 33.045ZM132.45 33.1H118.45V36.2545L119.803 39.1042L132.45 33.1ZM135.035 38.545L146.879 46.009L150.984 39.4957L147.682 32.5408L135.035 38.545ZM123.32 57.135L111.476 49.671L97.9495 71.135H123.32V57.135ZM123.43 57.135L135.279 64.5922L148.783 43.135L123.43 43.135V57.135ZM118.48 65V79H126.211L130.329 72.4572L118.48 65ZM38.95 65L27.1041 57.5384L13.5856 79H38.95V65ZM58.42 34.09L69.3629 25.3578L57.0745 9.95832L46.5741 26.6284L58.42 34.09ZM62.765 39.535L51.8221 48.2672L75.366 33.4345L62.765 39.535ZM59.41 32.605L46.7769 38.6387L46.7929 38.6721L46.809 38.7055L59.41 32.605ZM93.785 57.135V71.135H101.486L105.61 64.6302L93.785 57.135ZM109.02 33.1L120.845 40.5952L134.47 19.1H109.02V33.1ZM90.54 33.1V19.1H82.8329L78.7108 25.612L90.54 33.1ZM76.405 55.43L78.2436 69.3087L84.733 68.449L88.2342 62.918L76.405 55.43ZM63.535 57.135L61.6964 43.2563L63.535 71.135V57.135ZM55.89 39.235H128.71V11.235H55.89V39.235ZM116.083 31.2817L119.823 39.0917L145.077 26.9983L141.337 19.1883L116.083 31.2817ZM118.45 33.045V33.1H146.45V33.045H118.45ZM119.803 39.1042L122.388 44.5492L147.682 32.5408L145.097 27.0958L119.803 39.1042ZM123.191 31.081L111.476 49.671L135.164 64.599L146.879 46.009L123.191 31.081ZM123.32 71.135H123.43V43.135H123.32V71.135ZM111.581 49.6778L106.631 57.5428L130.329 72.4572L135.279 64.5922L111.581 49.6778ZM118.48 51H38.95V79H118.48V51ZM50.7959 72.4616L70.2659 41.5516L46.5741 26.6284L27.1041 57.5384L50.7959 72.4616ZM47.4771 42.8222L51.8221 48.2672L73.7079 30.8028L69.3629 25.3578L47.4771 42.8222ZM75.366 33.4345L72.011 26.5045L46.809 38.7055L50.164 45.6355L75.366 33.4345ZM72.0431 26.5713L68.5231 19.2013L43.2569 31.2687L46.7769 38.6387L72.0431 26.5713ZM105.61 64.6302L120.845 40.5952L97.1954 25.6048L81.9604 49.6398L105.61 64.6302ZM109.02 19.1H90.54V47.1H109.02V19.1ZM78.7108 25.612L64.5758 47.942L88.2342 62.918L102.369 40.588L78.7108 25.612ZM74.5664 41.5513L61.6964 43.2563L65.3736 71.0137L78.2436 69.3087L74.5664 41.5513ZM63.535 71.135H93.785V43.135H63.535V71.135ZM148.101 57.135L146.275 43.2546L148.101 71.135V57.135ZM177.856 57.135V71.135H200.086L190.482 51.0866L177.856 57.135ZM173.456 47.95L186.082 41.9016L179.063 27.2487L165.608 36.3565L173.456 47.95ZM162.731 55.21L164.557 69.0904L167.838 68.6586L170.579 66.8035L162.731 55.21ZM209.261 65V79H231.481L221.889 58.9565L209.261 65ZM120.161 65L112.291 53.4214L74.6592 79H120.161V65ZM165.151 34.42L176.142 25.7482L168.065 15.5114L157.281 22.8414L165.151 34.42ZM169.881 40.415L158.89 49.0867L182.521 34.3959L169.881 40.415ZM166.581 33.485L179.221 27.4659L179.212 27.4463L179.202 27.4268L166.581 33.485ZM162.621 25.235V11.235H140.372L150 31.2932L162.621 25.235ZM190.231 25.235L202.859 19.1915L199.052 11.235H190.231V25.235ZM148.101 71.135H177.856V43.135H148.101V71.135ZM190.482 51.0866L186.082 41.9016L160.83 53.9984L165.23 63.1834L190.482 51.0866ZM165.608 36.3565L154.883 43.6165L170.579 66.8035L181.304 59.5435L165.608 36.3565ZM160.905 41.3296L146.275 43.2546L149.927 71.0154L164.557 69.0904L160.905 41.3296ZM209.261 51H120.161V79H209.261V51ZM128.031 76.5786L173.021 45.9985L157.281 22.8414L112.291 53.4214L128.031 76.5786ZM154.16 43.0917L158.89 49.0867L180.872 31.7432L176.142 25.7482L154.16 43.0917ZM182.521 34.3959L179.221 27.4659L153.941 39.5041L157.241 46.4341L182.521 34.3959ZM179.202 27.4268L175.242 19.1768L150 31.2932L153.96 39.5432L179.202 27.4268ZM162.621 39.235H190.231V11.235H162.621V39.235ZM177.603 31.2785L196.633 71.0435L221.889 58.9565L202.859 19.1915L177.603 31.2785ZM229.806 25.235V11.235H207.605L217.173 31.2687L229.806 25.235ZM269.406 25.235L282.039 19.2009L278.234 11.235H269.406V25.235ZM278.811 44.925L291.48 38.9671L291.462 38.929L291.444 38.8909L278.811 44.925ZM283.596 55.1L270.927 61.0579L297.194 51.7698L283.596 55.1ZM281.616 47.015L267.997 50.2577L268.007 50.3015L268.018 50.3452L281.616 47.015ZM281.066 44.705L269.22 37.243L266.084 42.2225L267.447 47.9477L281.066 44.705ZM293.331 25.235V11.235H285.604L281.485 17.7729L293.331 25.235ZM317.916 25.235L329.75 32.7152L343.328 11.235H317.916V25.235ZM292.781 65V79H300.494L304.615 72.4802L292.781 65ZM260.771 65L248.151 71.0615L251.964 79H260.771V65ZM257.416 58.015V44.015H235.16L244.796 64.0765L257.416 58.015ZM257.471 58.015V72.015H279.559L270.132 52.0398L257.471 58.015ZM249.606 41.35L262.267 35.3748L236.008 44.6802L249.606 41.35ZM251.586 49.435L237.988 52.7652L237.996 52.7979L238.004 52.8305L251.586 49.435ZM252.301 52.295L264.135 59.7748L267.336 54.711L265.883 48.8995L252.301 52.295ZM244.271 65V79H251.984L256.105 72.4798L244.271 65ZM212.866 65L201.02 57.5384L187.502 79H212.866V65ZM232.336 34.09L243.279 25.3578L230.991 9.95832L220.49 26.6284L232.336 34.09ZM236.681 39.535L225.738 48.2672L249.282 33.4345L236.681 39.535ZM233.326 32.605L220.693 38.6387L220.709 38.6721L220.725 38.7055L233.326 32.605ZM229.806 39.235H269.406V11.235H229.806V39.235ZM256.773 31.2691L266.178 50.9591L291.444 38.8909L282.039 19.2009L256.773 31.2691ZM266.142 50.8829L270.927 61.0579L296.265 49.1421L291.48 38.9671L266.142 50.8829ZM297.194 51.7698L295.214 43.6848L268.018 50.3452L269.998 58.4302L297.194 51.7698ZM295.235 43.7723L294.685 41.4623L267.447 47.9477L267.997 50.2577L295.235 43.7723ZM292.912 52.167L305.177 32.697L281.485 17.7729L269.22 37.243L292.912 52.167ZM293.331 39.235H317.916V11.235H293.331V39.235ZM306.082 17.7548L280.947 57.5198L304.615 72.4802L329.75 32.7152L306.082 17.7548ZM292.781 51H260.771V79H292.781V51ZM273.391 58.9385L270.036 51.9535L244.796 64.0765L248.151 71.0615L273.391 58.9385ZM257.416 72.015H257.471V44.015H257.416V72.015ZM270.132 52.0398L262.267 35.3748L236.945 47.3252L244.81 63.9902L270.132 52.0398ZM236.008 44.6802L237.988 52.7652L265.184 46.1048L263.204 38.0198L236.008 44.6802ZM238.004 52.8305L238.719 55.6905L265.883 48.8995L265.168 46.0395L238.004 52.8305ZM240.467 44.8152L232.437 57.5202L256.105 72.4798L264.135 59.7748L240.467 44.8152ZM244.271 51H212.866V79H244.271V51ZM224.712 72.4616L244.182 41.5516L220.49 26.6284L201.02 57.5384L224.712 72.4616ZM221.393 42.8222L225.738 48.2672L247.624 30.8028L243.279 25.3578L221.393 42.8222ZM249.282 33.4345L245.927 26.5045L220.725 38.7055L224.08 45.6355L249.282 33.4345ZM245.959 26.5713L242.439 19.2013L217.173 31.2687L220.693 38.6387L245.959 26.5713ZM319.395 25.235V11.235H297.193L306.762 31.2687L319.395 25.235ZM400.85 25.235L412.698 32.6922L426.203 11.235L400.85 11.235V25.235ZM395.9 33.1V47.1H403.63L407.748 40.5572L395.9 33.1ZM354.045 33.1V19.1H346.343L342.22 25.6048L354.045 33.1ZM338.81 57.135L326.985 49.6398L313.36 71.135H338.81V57.135ZM357.29 57.135V71.135H365.024L369.141 64.5872L357.29 57.135ZM361.855 49.875L373.706 57.3272L377.803 50.8126L374.498 43.8628L361.855 49.875ZM358.115 42.01V28.01H335.955L345.471 48.0222L358.115 42.01ZM390.29 42.01L402.937 36.0058L399.141 28.01H390.29V42.01ZM392.875 47.455L404.716 54.9233L408.825 48.4086L405.522 41.4508L392.875 47.455ZM386.77 57.135L374.928 49.6667L361.388 71.135H386.77V57.135ZM386.935 57.135L398.783 64.5922L412.288 43.135L386.935 43.135V57.135ZM381.985 65V79H389.715L393.833 72.4572L381.985 65ZM310.595 65L297.962 71.0337L301.766 79H310.595V65ZM307.075 57.63L295.234 50.1603L291.112 56.6935L294.442 63.6637L307.075 57.63ZM321.925 34.09L332.921 25.4258L320.657 9.85957L310.084 26.6203L321.925 34.09ZM326.215 39.535L315.218 48.1992L338.855 33.5159L326.215 39.535ZM322.915 32.605L335.555 26.5859L335.551 26.5786L335.548 26.5713L322.915 32.605ZM319.395 39.235H400.85V11.235H319.395V39.235ZM389.001 17.7778L384.051 25.6428L407.748 40.5572L412.698 32.6922L389.001 17.7778ZM395.9 19.1H354.045V47.1H395.9V19.1ZM342.22 25.6048L326.985 49.6398L350.634 64.6302L365.869 40.5952L342.22 25.6048ZM338.81 71.135H357.29V43.135H338.81V71.135ZM369.141 64.5872L373.706 57.3272L350.003 42.4228L345.438 49.6828L369.141 64.5872ZM374.498 43.8628L370.758 35.9978L345.471 48.0222L349.211 55.8872L374.498 43.8628ZM358.115 56.01H390.29V28.01H358.115V56.01ZM377.642 48.0142L380.227 53.4592L405.522 41.4508L402.937 36.0058L377.642 48.0142ZM381.033 39.9867L374.928 49.6667L398.611 64.6033L404.716 54.9233L381.033 39.9867ZM386.77 71.135H386.935V43.135H386.77V71.135ZM375.086 49.6778L370.136 57.5428L393.833 72.4572L398.783 64.5922L375.086 49.6778ZM381.985 51H310.595V79H381.985V51ZM323.228 58.9663L319.708 51.5963L294.442 63.6637L297.962 71.0337L323.228 58.9663ZM318.915 65.0997L333.765 41.5597L310.084 26.6203L295.234 50.1603L318.915 65.0997ZM310.928 42.7542L315.218 48.1992L337.211 30.8708L332.921 25.4258L310.928 42.7542ZM338.855 33.5159L335.555 26.5859L310.275 38.6241L313.575 45.5541L338.855 33.5159ZM335.548 26.5713L332.028 19.2013L306.762 31.2687L310.282 38.6387L335.548 26.5713ZM403.13 25.235V11.235H380.929L390.497 31.2687L403.13 25.235ZM484.585 25.235L496.434 32.6922L509.938 11.235L484.585 11.235V25.235ZM479.635 33.1V47.1H487.366L491.484 40.5572L479.635 33.1ZM437.78 33.1V19.1H430.091L425.966 25.5885L437.78 33.1ZM432.115 42.01L420.301 34.4985L406.624 56.01H432.115V42.01ZM464.675 42.01L476.524 49.4672L490.028 28.01L464.675 28.01V42.01ZM459.725 49.875V63.875H467.456L471.574 57.3322L459.725 49.875ZM427.165 49.875V35.875H419.462L415.339 42.3815L427.165 49.875ZM423.645 55.43L425.484 69.3087L431.969 68.4496L435.471 62.9235L423.645 55.43ZM410.775 57.135L408.936 43.2563L410.775 71.135V57.135ZM470.67 57.135L482.519 64.5922L496.023 43.135L470.67 43.135V57.135ZM465.72 65V79H473.451L477.569 72.4572L465.72 65ZM394.33 65L381.697 71.0337L385.502 79H394.33V65ZM390.81 57.63L378.969 50.1603L374.848 56.6935L378.177 63.6637L390.81 57.63ZM405.66 34.09L416.657 25.4258L404.393 9.85957L393.819 26.6203L405.66 34.09ZM409.95 39.535L398.953 48.1992L422.59 33.5159L409.95 39.535ZM406.65 32.605L419.29 26.5859L419.286 26.5786L419.283 26.5713L406.65 32.605ZM403.13 39.235H484.585V11.235H403.13V39.235ZM472.736 17.7778L467.786 25.6428L491.484 40.5572L496.434 32.6922L472.736 17.7778ZM479.635 19.1H437.78V47.1H479.635V19.1ZM425.966 25.5885L420.301 34.4985L443.929 49.5215L449.594 40.6115L425.966 25.5885ZM432.115 56.01H464.675V28.01H432.115V56.01ZM452.826 34.5528L447.876 42.4178L471.574 57.3322L476.524 49.4672L452.826 34.5528ZM459.725 35.875H427.165V63.875H459.725V35.875ZM415.339 42.3815L411.819 47.9365L435.471 62.9235L438.991 57.3685L415.339 42.3815ZM421.806 41.5513L408.936 43.2563L412.614 71.0137L425.484 69.3087L421.806 41.5513ZM410.775 71.135H470.67V43.135H410.775V71.135ZM458.821 49.6778L453.871 57.5428L477.569 72.4572L482.519 64.5922L458.821 49.6778ZM465.72 51H394.33V79H465.72V51ZM406.963 58.9663L403.443 51.5963L378.177 63.6637L381.697 71.0337L406.963 58.9663ZM402.651 65.0997L417.501 41.5597L393.819 26.6203L378.969 50.1603L402.651 65.0997ZM394.663 42.7542L398.953 48.1992L420.947 30.8708L416.657 25.4258L394.663 42.7542ZM422.59 33.5159L419.29 26.5859L394.01 38.6241L397.31 45.5541L422.59 33.5159ZM419.283 26.5713L415.763 19.2013L390.497 31.2687L394.017 38.6387L419.283 26.5713ZM486.813 25.235V11.235H464.611L474.18 31.2687L486.813 25.235ZM568.323 25.235L580.92 19.1272L577.094 11.235H568.323V25.235ZM570.963 30.68L582.791 38.1699L586.961 31.5852L583.56 24.5722L570.963 30.68ZM558.808 49.875V63.875H566.513L570.636 57.3649L558.808 49.875ZM550.778 49.875V35.875H528.601L538.139 55.8959L550.778 49.875ZM557.983 65V79H580.159L570.622 58.9791L557.983 65ZM530.373 65L517.74 71.0349L521.546 79H530.373V65ZM523.883 51.415L511.185 57.3106L511.217 57.3804L511.25 57.4499L523.883 51.415ZM523.168 49.875L535.866 43.9794L532.103 35.875H523.168V49.875ZM510.848 49.875V35.875H503.139L499.017 42.3894L510.848 49.875ZM501.278 65V79H508.987L513.109 72.4856L501.278 65ZM469.873 65L458.027 57.5384L444.508 79H469.873V65ZM489.343 34.09L500.286 25.3578L487.997 9.95832L477.497 26.6284L489.343 34.09ZM493.688 39.535L482.745 48.2672L506.289 33.4345L493.688 39.535ZM490.333 32.605L477.7 38.6387L477.716 38.6721L477.732 38.7055L490.333 32.605ZM535.378 40.305L523.552 32.8121L512.161 50.79L533.18 54.1314L535.378 40.305ZM539.943 33.1L551.769 40.5929L565.387 19.1H539.943V33.1ZM521.463 33.1V19.1H513.774L509.649 25.5885L521.463 33.1ZM515.798 42.01L503.984 34.4985L490.306 56.01L515.798 56.01V42.01ZM546.103 42.01V56.01L548.301 28.1836L546.103 42.01ZM486.813 39.235H568.323V11.235H486.813V39.235ZM555.725 31.3428L558.365 36.7878L583.56 24.5722L580.92 19.1272L555.725 31.3428ZM559.135 23.1901L546.98 42.3851L570.636 57.3649L582.791 38.1699L559.135 23.1901ZM558.808 35.875H550.778V63.875H558.808V35.875ZM538.139 55.8959L545.344 71.0209L570.622 58.9791L563.417 43.8541L538.139 55.8959ZM557.983 51H530.373V79H557.983V51ZM543.005 58.9651L536.515 45.3801L511.25 57.4499L517.74 71.0349L543.005 58.9651ZM536.581 45.5194L535.866 43.9794L510.47 55.7706L511.185 57.3106L536.581 45.5194ZM523.168 35.875H510.848V63.875H523.168V35.875ZM499.017 42.3894L489.447 57.5144L513.109 72.4856L522.679 57.3606L499.017 42.3894ZM501.278 51H469.873V79H501.278V51ZM481.719 72.4616L501.189 41.5516L477.497 26.6284L458.027 57.5384L481.719 72.4616ZM478.4 42.8222L482.745 48.2672L504.631 30.8028L500.286 25.3578L478.4 42.8222ZM506.289 33.4345L502.934 26.5045L477.732 38.7055L481.087 45.6355L506.289 33.4345ZM502.966 26.5713L499.446 19.2013L474.18 31.2687L477.7 38.6387L502.966 26.5713ZM547.204 47.7979L551.769 40.5929L528.117 25.6071L523.552 32.8121L547.204 47.7979ZM539.943 19.1H521.463V47.1H539.943V19.1ZM509.649 25.5885L503.984 34.4985L527.612 49.5215L533.277 40.6115L509.649 25.5885ZM515.798 56.01H546.103V28.01H515.798V56.01ZM548.301 28.1836L537.576 26.4786L533.18 54.1314L543.905 55.8364L548.301 28.1836ZM631.678 25.235V11.235H609.405L619.063 31.3056L631.678 25.235ZM671.278 25.235L682.322 33.8392L699.933 11.235H671.278V25.235ZM649.553 53.12V67.12H656.393L660.597 61.7242L649.553 53.12ZM626.123 53.12L613.556 46.9511L603.656 67.12H626.123V53.12ZM634.978 35.08L645.897 26.3178L632.114 9.14216L622.411 28.9111L634.978 35.08ZM638.553 39.535L627.634 48.2972L651.154 33.4345L638.553 39.535ZM635.198 32.605H621.198V35.8157L622.597 38.7055L635.198 32.605ZM635.198 32.55H649.198V29.3568L647.814 26.4794L635.198 32.55ZM619.688 57.135V43.135H611.957L607.839 49.6778L619.688 57.135ZM651.148 57.135L662.997 64.5922L676.501 43.135L651.148 43.135V57.135ZM646.198 65V79H653.929L658.047 72.4572L646.198 65ZM614.738 65L602.889 57.5428L589.385 79H614.738V65ZM631.678 39.235H671.278V11.235H631.678V39.235ZM660.234 16.6308L638.509 44.5158L660.597 61.7242L682.322 33.8392L660.234 16.6308ZM649.553 39.12H626.123V67.12H649.553V39.12ZM638.691 59.2889L647.546 41.2489L622.411 28.9111L613.556 46.9511L638.691 59.2889ZM624.059 43.8422L627.634 48.2972L649.472 30.7728L645.897 26.3178L624.059 43.8422ZM651.154 33.4345L647.799 26.5045L622.597 38.7055L625.952 45.6355L651.154 33.4345ZM649.198 32.605V32.55H621.198V32.605H649.198ZM647.814 26.4794L644.294 19.1644L619.063 31.3056L622.583 38.6206L647.814 26.4794ZM619.688 71.135H651.148V43.135H619.688V71.135ZM639.299 49.6778L634.349 57.5428L658.047 72.4572L662.997 64.5922L639.299 49.6778ZM646.198 51H614.738V79H646.198V51ZM626.587 72.4572L631.537 64.5922L607.839 49.6778L602.889 57.5428L626.587 72.4572ZM681.253 25.235V11.235H658.98L668.638 31.3056L681.253 25.235ZM720.853 25.235L731.897 33.8392L749.508 11.235H720.853V25.235ZM699.128 53.12V67.12H705.968L710.172 61.7242L699.128 53.12ZM675.698 53.12L663.131 46.9511L653.231 67.12H675.698V53.12ZM684.553 35.08L695.472 26.3178L681.689 9.14216L671.986 28.9111L684.553 35.08ZM688.128 39.535L677.209 48.2972L700.729 33.4345L688.128 39.535ZM684.773 32.605H670.773V35.8157L672.172 38.7055L684.773 32.605ZM684.773 32.55H698.773V29.3568L697.389 26.4794L684.773 32.55ZM669.263 57.135V43.135H661.533L657.415 49.6778L669.263 57.135ZM700.723 57.135L712.572 64.5922L726.076 43.135L700.723 43.135V57.135ZM695.773 65V79H703.504L707.622 72.4572L695.773 65ZM664.313 65L652.465 57.5428L638.96 79H664.313V65ZM681.253 39.235H720.853V11.235H681.253V39.235ZM709.809 16.6308L688.084 44.5158L710.172 61.7242L731.897 33.8392L709.809 16.6308ZM699.128 39.12H675.698V67.12H699.128V39.12ZM688.266 59.2889L697.121 41.2489L671.986 28.9111L663.131 46.9511L688.266 59.2889ZM673.634 43.8422L677.209 48.2972L699.047 30.7728L695.472 26.3178L673.634 43.8422ZM700.729 33.4345L697.374 26.5045L672.172 38.7055L675.527 45.6355L700.729 33.4345ZM698.773 32.605V32.55H670.773V32.605H698.773ZM697.389 26.4794L693.869 19.1644L668.638 31.3056L672.158 38.6206L697.389 26.4794ZM669.263 71.135H700.723V43.135H669.263V71.135ZM688.875 49.6778L683.925 57.5428L707.622 72.4572L712.572 64.5922L688.875 49.6778ZM695.773 51H664.313V79H695.773V51ZM676.162 72.4572L681.112 64.5922L657.415 49.6778L652.465 57.5428L676.162 72.4572ZM730.829 25.235V11.235H708.555L718.213 31.3056L730.829 25.235ZM770.429 25.235L781.472 33.8392L799.083 11.235H770.429V25.235ZM748.704 53.12V67.12H755.544L759.747 61.7242L748.704 53.12ZM725.274 53.12L712.706 46.9511L702.806 67.12H725.274V53.12ZM734.129 35.08L745.048 26.3178L731.265 9.14216L721.561 28.9111L734.129 35.08ZM737.704 39.535L726.785 48.2972L750.304 33.4345L737.704 39.535ZM734.349 32.605H720.349V35.8157L721.748 38.7055L734.349 32.605ZM734.349 32.55H748.349V29.3568L746.964 26.4794L734.349 32.55ZM718.839 57.135V43.135H711.108L706.99 49.6778L718.839 57.135ZM750.299 57.135L762.147 64.5922L775.652 43.135L750.299 43.135V57.135ZM745.349 65V79H753.079L757.197 72.4572L745.349 65ZM713.889 65L702.04 57.5428L688.535 79H713.889V65ZM730.829 39.235H770.429V11.235H730.829V39.235ZM759.385 16.6308L737.66 44.5158L759.747 61.7242L781.472 33.8392L759.385 16.6308ZM748.704 39.12H725.274V67.12H748.704V39.12ZM737.841 59.2889L746.696 41.2489L721.561 28.9111L712.706 46.9511L737.841 59.2889ZM723.21 43.8422L726.785 48.2972L748.623 30.7728L745.048 26.3178L723.21 43.8422ZM750.304 33.4345L746.949 26.5045L721.748 38.7055L725.103 45.6355L750.304 33.4345ZM748.349 32.605V32.55H720.349V32.605H748.349ZM746.964 26.4794L743.444 19.1644L718.213 31.3056L721.733 38.6206L746.964 26.4794ZM718.839 71.135H750.299V43.135H718.839V71.135ZM738.45 49.6778L733.5 57.5428L757.197 72.4572L762.147 64.5922L738.45 49.6778ZM745.349 51H713.889V79H745.349V51ZM725.737 72.4572L730.687 64.5922L706.99 49.6778L702.04 57.5428L725.737 72.4572Z" fill="#EEEEEE" mask="url(#path-1-outside-1_172_7496)"/>
<mask id="path-3-outside-2_172_7496" maskUnits="userSpaceOnUse" x="2" y="1" width="787" height="70" fill="black">
<rect fill="white" x="2" y="1" width="787" height="70"/>
<path d="M44.89 17.235H117.71L121.45 25.045V25.1L124.035 30.545L112.32 49.135H112.43L107.48 57H27.95L47.42 26.09L51.765 31.535L48.41 24.605L44.89 17.235ZM82.785 49.135L98.02 25.1H79.54L65.405 47.43L52.535 49.135H82.785ZM137.101 49.135H166.856L162.456 39.95L151.731 47.21L137.101 49.135ZM198.261 57H109.161L154.151 26.42L158.881 32.415L155.581 25.485L151.621 17.235H179.231L198.261 57ZM218.806 17.235H258.406L267.811 36.925L272.596 47.1L270.616 39.015L270.066 36.705L282.331 17.235H306.916L281.781 57H249.771L246.416 50.015H246.471L238.606 33.35L240.586 41.435L241.301 44.295L233.271 57H201.866L221.336 26.09L225.681 31.535L222.326 24.605L218.806 17.235ZM308.395 17.235H389.85L384.9 25.1H343.045L327.81 49.135H346.29L350.855 41.875L347.115 34.01H379.29L381.875 39.455L375.77 49.135H375.935L370.985 57H299.595L296.075 49.63L310.925 26.09L315.215 31.535L311.915 24.605L308.395 17.235ZM392.13 17.235H473.585L468.635 25.1H426.78L421.115 34.01H453.675L448.725 41.875H416.165L412.645 47.43L399.775 49.135H459.67L454.72 57H383.33L379.81 49.63L394.66 26.09L398.95 31.535L395.65 24.605L392.13 17.235ZM475.813 17.235H557.323L559.963 22.68L547.808 41.875H539.778L546.983 57H519.373L512.883 43.415L512.168 41.875H499.848L490.278 57H458.873L478.343 26.09L482.688 31.535L479.333 24.605L475.813 17.235ZM524.378 32.305L528.943 25.1H510.463L504.798 34.01H535.103L524.378 32.305ZM620.678 17.235H660.278L638.553 45.12H615.123L623.978 27.08L627.553 31.535L624.198 24.605V24.55L620.678 17.235ZM608.688 49.135H640.148L635.198 57H603.738L608.688 49.135ZM670.253 17.235H709.853L688.128 45.12H664.698L673.553 27.08L677.128 31.535L673.773 24.605V24.55L670.253 17.235ZM658.263 49.135H689.723L684.773 57H653.313L658.263 49.135ZM719.829 17.235H759.429L737.704 45.12H714.274L723.129 27.08L726.704 31.535L723.349 24.605V24.55L719.829 17.235ZM707.839 49.135H739.299L734.349 57H702.889L707.839 49.135Z"/>
</mask>
<path d="M44.89 17.235H117.71L121.45 25.045V25.1L124.035 30.545L112.32 49.135H112.43L107.48 57H27.95L47.42 26.09L51.765 31.535L48.41 24.605L44.89 17.235ZM82.785 49.135L98.02 25.1H79.54L65.405 47.43L52.535 49.135H82.785ZM137.101 49.135H166.856L162.456 39.95L151.731 47.21L137.101 49.135ZM198.261 57H109.161L154.151 26.42L158.881 32.415L155.581 25.485L151.621 17.235H179.231L198.261 57ZM218.806 17.235H258.406L267.811 36.925L272.596 47.1L270.616 39.015L270.066 36.705L282.331 17.235H306.916L281.781 57H249.771L246.416 50.015H246.471L238.606 33.35L240.586 41.435L241.301 44.295L233.271 57H201.866L221.336 26.09L225.681 31.535L222.326 24.605L218.806 17.235ZM308.395 17.235H389.85L384.9 25.1H343.045L327.81 49.135H346.29L350.855 41.875L347.115 34.01H379.29L381.875 39.455L375.77 49.135H375.935L370.985 57H299.595L296.075 49.63L310.925 26.09L315.215 31.535L311.915 24.605L308.395 17.235ZM392.13 17.235H473.585L468.635 25.1H426.78L421.115 34.01H453.675L448.725 41.875H416.165L412.645 47.43L399.775 49.135H459.67L454.72 57H383.33L379.81 49.63L394.66 26.09L398.95 31.535L395.65 24.605L392.13 17.235ZM475.813 17.235H557.323L559.963 22.68L547.808 41.875H539.778L546.983 57H519.373L512.883 43.415L512.168 41.875H499.848L490.278 57H458.873L478.343 26.09L482.688 31.535L479.333 24.605L475.813 17.235ZM524.378 32.305L528.943 25.1H510.463L504.798 34.01H535.103L524.378 32.305ZM620.678 17.235H660.278L638.553 45.12H615.123L623.978 27.08L627.553 31.535L624.198 24.605V24.55L620.678 17.235ZM608.688 49.135H640.148L635.198 57H603.738L608.688 49.135ZM670.253 17.235H709.853L688.128 45.12H664.698L673.553 27.08L677.128 31.535L673.773 24.605V24.55L670.253 17.235ZM658.263 49.135H689.723L684.773 57H653.313L658.263 49.135ZM719.829 17.235H759.429L737.704 45.12H714.274L723.129 27.08L726.704 31.535L723.349 24.605V24.55L719.829 17.235ZM707.839 49.135H739.299L734.349 57H702.889L707.839 49.135Z" fill="url(#paint0_linear_172_7496)"/>
<path d="M44.89 17.235V3.235H22.6886L32.2569 23.2687L44.89 17.235ZM117.71 17.235L130.337 11.1883L126.528 3.235H117.71V17.235ZM121.45 25.045H135.45V21.8658L134.077 18.9983L121.45 25.045ZM121.45 25.1H107.45V28.2545L108.803 31.1042L121.45 25.1ZM124.035 30.545L135.879 38.009L139.984 31.4957L136.682 24.5408L124.035 30.545ZM112.32 49.135L100.476 41.671L86.9495 63.135H112.32V49.135ZM112.43 49.135L124.279 56.5922L137.783 35.135L112.43 35.135V49.135ZM107.48 57V71H115.211L119.329 64.4572L107.48 57ZM27.95 57L16.1041 49.5384L2.58562 71H27.95V57ZM47.42 26.09L58.3629 17.3578L46.0745 1.95832L35.5741 18.6284L47.42 26.09ZM51.765 31.535L40.8221 40.2672L64.366 25.4345L51.765 31.535ZM48.41 24.605L35.7769 30.6387L35.7929 30.6721L35.809 30.7055L48.41 24.605ZM82.785 49.135V63.135H90.4865L94.6096 56.6302L82.785 49.135ZM98.02 25.1L109.845 32.5952L123.47 11.1H98.02V25.1ZM79.54 25.1V11.1H71.8329L67.7108 17.612L79.54 25.1ZM65.405 47.43L67.2436 61.3087L73.733 60.449L77.2342 54.918L65.405 47.43ZM52.535 49.135L50.6964 35.2563L52.535 63.135V49.135ZM44.89 31.235H117.71V3.235H44.89V31.235ZM105.083 23.2817L108.823 31.0917L134.077 18.9983L130.337 11.1883L105.083 23.2817ZM107.45 25.045V25.1H135.45V25.045H107.45ZM108.803 31.1042L111.388 36.5492L136.682 24.5408L134.097 19.0958L108.803 31.1042ZM112.191 23.081L100.476 41.671L124.164 56.599L135.879 38.009L112.191 23.081ZM112.32 63.135H112.43V35.135H112.32V63.135ZM100.581 41.6778L95.6314 49.5428L119.329 64.4572L124.279 56.5922L100.581 41.6778ZM107.48 43H27.95V71H107.48V43ZM39.7959 64.4616L59.2659 33.5516L35.5741 18.6284L16.1041 49.5384L39.7959 64.4616ZM36.4771 34.8222L40.8221 40.2672L62.7079 22.8028L58.3629 17.3578L36.4771 34.8222ZM64.366 25.4345L61.011 18.5045L35.809 30.7055L39.164 37.6355L64.366 25.4345ZM61.0431 18.5713L57.5231 11.2013L32.2569 23.2687L35.7769 30.6387L61.0431 18.5713ZM94.6096 56.6302L109.845 32.5952L86.1954 17.6048L70.9604 41.6398L94.6096 56.6302ZM98.02 11.1H79.54V39.1H98.02V11.1ZM67.7108 17.612L53.5758 39.942L77.2342 54.918L91.3692 32.588L67.7108 17.612ZM63.5664 33.5513L50.6964 35.2563L54.3736 63.0137L67.2436 61.3087L63.5664 33.5513ZM52.535 63.135H82.785V35.135H52.535V63.135ZM137.101 49.135L135.275 35.2546L137.101 63.135V49.135ZM166.856 49.135V63.135H189.086L179.482 43.0866L166.856 49.135ZM162.456 39.95L175.082 33.9016L168.063 19.2487L154.608 28.3565L162.456 39.95ZM151.731 47.21L153.557 61.0904L156.838 60.6586L159.579 58.8035L151.731 47.21ZM198.261 57V71H220.481L210.889 50.9565L198.261 57ZM109.161 57L101.291 45.4214L63.6592 71H109.161V57ZM154.151 26.42L165.142 17.7482L157.065 7.51138L146.281 14.8414L154.151 26.42ZM158.881 32.415L147.89 41.0867L171.521 26.3959L158.881 32.415ZM155.581 25.485L168.221 19.4659L168.212 19.4463L168.202 19.4268L155.581 25.485ZM151.621 17.235V3.235H129.372L139 23.2932L151.621 17.235ZM179.231 17.235L191.859 11.1915L188.052 3.235H179.231V17.235ZM137.101 63.135H166.856V35.135H137.101V63.135ZM179.482 43.0866L175.082 33.9016L149.83 45.9984L154.23 55.1834L179.482 43.0866ZM154.608 28.3565L143.883 35.6165L159.579 58.8035L170.304 51.5435L154.608 28.3565ZM149.905 33.3296L135.275 35.2546L138.927 63.0154L153.557 61.0904L149.905 33.3296ZM198.261 43H109.161V71H198.261V43ZM117.031 68.5786L162.021 37.9985L146.281 14.8414L101.291 45.4214L117.031 68.5786ZM143.16 35.0917L147.89 41.0867L169.872 23.7432L165.142 17.7482L143.16 35.0917ZM171.521 26.3959L168.221 19.4659L142.941 31.5041L146.241 38.4341L171.521 26.3959ZM168.202 19.4268L164.242 11.1768L139 23.2932L142.96 31.5432L168.202 19.4268ZM151.621 31.235H179.231V3.235H151.621V31.235ZM166.603 23.2785L185.633 63.0435L210.889 50.9565L191.859 11.1915L166.603 23.2785ZM218.806 17.235V3.235H196.605L206.173 23.2687L218.806 17.235ZM258.406 17.235L271.039 11.2009L267.234 3.235H258.406V17.235ZM267.811 36.925L280.48 30.9671L280.462 30.929L280.444 30.8909L267.811 36.925ZM272.596 47.1L259.927 53.0579L286.194 43.7698L272.596 47.1ZM270.616 39.015L256.997 42.2577L257.007 42.3015L257.018 42.3452L270.616 39.015ZM270.066 36.705L258.22 29.243L255.084 34.2225L256.447 39.9477L270.066 36.705ZM282.331 17.235V3.235H274.604L270.485 9.77295L282.331 17.235ZM306.916 17.235L318.75 24.7152L332.328 3.235H306.916V17.235ZM281.781 57V71H289.494L293.615 64.4802L281.781 57ZM249.771 57L237.151 63.0615L240.964 71H249.771V57ZM246.416 50.015V36.015H224.16L233.796 56.0765L246.416 50.015ZM246.471 50.015V64.015H268.559L259.132 44.0398L246.471 50.015ZM238.606 33.35L251.267 27.3748L225.008 36.6802L238.606 33.35ZM240.586 41.435L226.988 44.7652L226.996 44.7979L227.004 44.8305L240.586 41.435ZM241.301 44.295L253.135 51.7748L256.336 46.711L254.883 40.8995L241.301 44.295ZM233.271 57V71H240.984L245.105 64.4798L233.271 57ZM201.866 57L190.02 49.5384L176.502 71H201.866V57ZM221.336 26.09L232.279 17.3578L219.991 1.95832L209.49 18.6284L221.336 26.09ZM225.681 31.535L214.738 40.2672L238.282 25.4345L225.681 31.535ZM222.326 24.605L209.693 30.6387L209.709 30.6721L209.725 30.7055L222.326 24.605ZM218.806 31.235H258.406V3.235H218.806V31.235ZM245.773 23.2691L255.178 42.9591L280.444 30.8909L271.039 11.2009L245.773 23.2691ZM255.142 42.8829L259.927 53.0579L285.265 41.1421L280.48 30.9671L255.142 42.8829ZM286.194 43.7698L284.214 35.6848L257.018 42.3452L258.998 50.4302L286.194 43.7698ZM284.235 35.7723L283.685 33.4623L256.447 39.9477L256.997 42.2577L284.235 35.7723ZM281.912 44.167L294.177 24.697L270.485 9.77295L258.22 29.243L281.912 44.167ZM282.331 31.235H306.916V3.235H282.331V31.235ZM295.082 9.75479L269.947 49.5198L293.615 64.4802L318.75 24.7152L295.082 9.75479ZM281.781 43H249.771V71H281.781V43ZM262.391 50.9385L259.036 43.9535L233.796 56.0765L237.151 63.0615L262.391 50.9385ZM246.416 64.015H246.471V36.015H246.416V64.015ZM259.132 44.0398L251.267 27.3748L225.945 39.3252L233.81 55.9902L259.132 44.0398ZM225.008 36.6802L226.988 44.7652L254.184 38.1048L252.204 30.0198L225.008 36.6802ZM227.004 44.8305L227.719 47.6905L254.883 40.8995L254.168 38.0395L227.004 44.8305ZM229.467 36.8152L221.437 49.5202L245.105 64.4798L253.135 51.7748L229.467 36.8152ZM233.271 43H201.866V71H233.271V43ZM213.712 64.4616L233.182 33.5516L209.49 18.6284L190.02 49.5384L213.712 64.4616ZM210.393 34.8222L214.738 40.2672L236.624 22.8028L232.279 17.3578L210.393 34.8222ZM238.282 25.4345L234.927 18.5045L209.725 30.7055L213.08 37.6355L238.282 25.4345ZM234.959 18.5713L231.439 11.2013L206.173 23.2687L209.693 30.6387L234.959 18.5713ZM308.395 17.235V3.235H286.193L295.762 23.2687L308.395 17.235ZM389.85 17.235L401.698 24.6922L415.203 3.235L389.85 3.235V17.235ZM384.9 25.1V39.1H392.63L396.748 32.5572L384.9 25.1ZM343.045 25.1V11.1H335.343L331.22 17.6048L343.045 25.1ZM327.81 49.135L315.985 41.6398L302.36 63.135H327.81V49.135ZM346.29 49.135V63.135H354.024L358.141 56.5872L346.29 49.135ZM350.855 41.875L362.706 49.3272L366.803 42.8126L363.498 35.8628L350.855 41.875ZM347.115 34.01V20.01H324.955L334.471 40.0222L347.115 34.01ZM379.29 34.01L391.937 28.0058L388.141 20.01H379.29V34.01ZM381.875 39.455L393.716 46.9233L397.825 40.4086L394.522 33.4508L381.875 39.455ZM375.77 49.135L363.928 41.6667L350.388 63.135H375.77V49.135ZM375.935 49.135L387.783 56.5922L401.288 35.135L375.935 35.135V49.135ZM370.985 57V71H378.715L382.833 64.4572L370.985 57ZM299.595 57L286.962 63.0337L290.766 71H299.595V57ZM296.075 49.63L284.234 42.1603L280.112 48.6935L283.442 55.6637L296.075 49.63ZM310.925 26.09L321.921 17.4258L309.657 1.85957L299.084 18.6203L310.925 26.09ZM315.215 31.535L304.218 40.1992L327.855 25.5159L315.215 31.535ZM311.915 24.605L324.555 18.5859L324.551 18.5786L324.548 18.5713L311.915 24.605ZM308.395 31.235H389.85V3.235H308.395V31.235ZM378.001 9.77781L373.051 17.6428L396.748 32.5572L401.698 24.6922L378.001 9.77781ZM384.9 11.1H343.045V39.1H384.9V11.1ZM331.22 17.6048L315.985 41.6398L339.634 56.6302L354.869 32.5952L331.22 17.6048ZM327.81 63.135H346.29V35.135H327.81V63.135ZM358.141 56.5872L362.706 49.3272L339.003 34.4228L334.438 41.6828L358.141 56.5872ZM363.498 35.8628L359.758 27.9978L334.471 40.0222L338.211 47.8872L363.498 35.8628ZM347.115 48.01H379.29V20.01H347.115V48.01ZM366.642 40.0142L369.227 45.4592L394.522 33.4508L391.937 28.0058L366.642 40.0142ZM370.033 31.9867L363.928 41.6667L387.611 56.6033L393.716 46.9233L370.033 31.9867ZM375.77 63.135H375.935V35.135H375.77V63.135ZM364.086 41.6778L359.136 49.5428L382.833 64.4572L387.783 56.5922L364.086 41.6778ZM370.985 43H299.595V71H370.985V43ZM312.228 50.9663L308.708 43.5963L283.442 55.6637L286.962 63.0337L312.228 50.9663ZM307.915 57.0997L322.765 33.5597L299.084 18.6203L284.234 42.1603L307.915 57.0997ZM299.928 34.7542L304.218 40.1992L326.211 22.8708L321.921 17.4258L299.928 34.7542ZM327.855 25.5159L324.555 18.5859L299.275 30.6241L302.575 37.5541L327.855 25.5159ZM324.548 18.5713L321.028 11.2013L295.762 23.2687L299.282 30.6387L324.548 18.5713ZM392.13 17.235V3.235H369.929L379.497 23.2687L392.13 17.235ZM473.585 17.235L485.434 24.6922L498.938 3.235L473.585 3.235V17.235ZM468.635 25.1V39.1H476.366L480.484 32.5572L468.635 25.1ZM426.78 25.1V11.1H419.091L414.966 17.5885L426.78 25.1ZM421.115 34.01L409.301 26.4985L395.624 48.01H421.115V34.01ZM453.675 34.01L465.524 41.4672L479.028 20.01L453.675 20.01V34.01ZM448.725 41.875V55.875H456.456L460.574 49.3322L448.725 41.875ZM416.165 41.875V27.875H408.462L404.339 34.3815L416.165 41.875ZM412.645 47.43L414.484 61.3087L420.969 60.4496L424.471 54.9235L412.645 47.43ZM399.775 49.135L397.936 35.2563L399.775 63.135V49.135ZM459.67 49.135L471.519 56.5922L485.023 35.135L459.67 35.135V49.135ZM454.72 57V71H462.451L466.569 64.4572L454.72 57ZM383.33 57L370.697 63.0337L374.502 71H383.33V57ZM379.81 49.63L367.969 42.1603L363.848 48.6935L367.177 55.6637L379.81 49.63ZM394.66 26.09L405.657 17.4258L393.393 1.85957L382.819 18.6203L394.66 26.09ZM398.95 31.535L387.953 40.1992L411.59 25.5159L398.95 31.535ZM395.65 24.605L408.29 18.5859L408.286 18.5786L408.283 18.5713L395.65 24.605ZM392.13 31.235H473.585V3.235H392.13V31.235ZM461.736 9.77781L456.786 17.6428L480.484 32.5572L485.434 24.6922L461.736 9.77781ZM468.635 11.1H426.78V39.1H468.635V11.1ZM414.966 17.5885L409.301 26.4985L432.929 41.5215L438.594 32.6115L414.966 17.5885ZM421.115 48.01H453.675V20.01H421.115V48.01ZM441.826 26.5528L436.876 34.4178L460.574 49.3322L465.524 41.4672L441.826 26.5528ZM448.725 27.875H416.165V55.875H448.725V27.875ZM404.339 34.3815L400.819 39.9365L424.471 54.9235L427.991 49.3685L404.339 34.3815ZM410.806 33.5513L397.936 35.2563L401.614 63.0137L414.484 61.3087L410.806 33.5513ZM399.775 63.135H459.67V35.135H399.775V63.135ZM447.821 41.6778L442.871 49.5428L466.569 64.4572L471.519 56.5922L447.821 41.6778ZM454.72 43H383.33V71H454.72V43ZM395.963 50.9663L392.443 43.5963L367.177 55.6637L370.697 63.0337L395.963 50.9663ZM391.651 57.0997L406.501 33.5597L382.819 18.6203L367.969 42.1603L391.651 57.0997ZM383.663 34.7542L387.953 40.1992L409.947 22.8708L405.657 17.4258L383.663 34.7542ZM411.59 25.5159L408.29 18.5859L383.01 30.6241L386.31 37.5541L411.59 25.5159ZM408.283 18.5713L404.763 11.2013L379.497 23.2687L383.017 30.6387L408.283 18.5713ZM475.813 17.235V3.235H453.611L463.18 23.2687L475.813 17.235ZM557.323 17.235L569.92 11.1272L566.094 3.235H557.323V17.235ZM559.963 22.68L571.791 30.1699L575.961 23.5852L572.56 16.5722L559.963 22.68ZM547.808 41.875V55.875H555.513L559.636 49.3649L547.808 41.875ZM539.778 41.875V27.875H517.601L527.139 47.8959L539.778 41.875ZM546.983 57V71H569.159L559.622 50.9791L546.983 57ZM519.373 57L506.74 63.0349L510.546 71H519.373V57ZM512.883 43.415L500.185 49.3106L500.217 49.3804L500.25 49.4499L512.883 43.415ZM512.168 41.875L524.866 35.9794L521.103 27.875H512.168V41.875ZM499.848 41.875V27.875H492.139L488.017 34.3894L499.848 41.875ZM490.278 57V71H497.987L502.109 64.4856L490.278 57ZM458.873 57L447.027 49.5384L433.508 71H458.873V57ZM478.343 26.09L489.286 17.3578L476.997 1.95832L466.497 18.6284L478.343 26.09ZM482.688 31.535L471.745 40.2672L495.289 25.4345L482.688 31.535ZM479.333 24.605L466.7 30.6387L466.716 30.6721L466.732 30.7055L479.333 24.605ZM524.378 32.305L512.552 24.8121L501.161 42.79L522.18 46.1314L524.378 32.305ZM528.943 25.1L540.769 32.5929L554.387 11.1H528.943V25.1ZM510.463 25.1V11.1H502.774L498.649 17.5885L510.463 25.1ZM504.798 34.01L492.984 26.4985L479.306 48.01L504.798 48.01V34.01ZM535.103 34.01V48.01L537.301 20.1836L535.103 34.01ZM475.813 31.235H557.323V3.235H475.813V31.235ZM544.725 23.3428L547.365 28.7878L572.56 16.5722L569.92 11.1272L544.725 23.3428ZM548.135 15.1901L535.98 34.3851L559.636 49.3649L571.791 30.1699L548.135 15.1901ZM547.808 27.875H539.778V55.875H547.808V27.875ZM527.139 47.8959L534.344 63.0209L559.622 50.9791L552.417 35.8541L527.139 47.8959ZM546.983 43H519.373V71H546.983V43ZM532.005 50.9651L525.515 37.3801L500.25 49.4499L506.74 63.0349L532.005 50.9651ZM525.581 37.5194L524.866 35.9794L499.47 47.7706L500.185 49.3106L525.581 37.5194ZM512.168 27.875H499.848V55.875H512.168V27.875ZM488.017 34.3894L478.447 49.5144L502.109 64.4856L511.679 49.3606L488.017 34.3894ZM490.278 43H458.873V71H490.278V43ZM470.719 64.4616L490.189 33.5516L466.497 18.6284L447.027 49.5384L470.719 64.4616ZM467.4 34.8222L471.745 40.2672L493.631 22.8028L489.286 17.3578L467.4 34.8222ZM495.289 25.4345L491.934 18.5045L466.732 30.7055L470.087 37.6355L495.289 25.4345ZM491.966 18.5713L488.446 11.2013L463.18 23.2687L466.7 30.6387L491.966 18.5713ZM536.204 39.7979L540.769 32.5929L517.117 17.6071L512.552 24.8121L536.204 39.7979ZM528.943 11.1H510.463V39.1H528.943V11.1ZM498.649 17.5885L492.984 26.4985L516.612 41.5215L522.277 32.6115L498.649 17.5885ZM504.798 48.01H535.103V20.01H504.798V48.01ZM537.301 20.1836L526.576 18.4786L522.18 46.1314L532.905 47.8364L537.301 20.1836ZM620.678 17.235V3.235H598.405L608.063 23.3056L620.678 17.235ZM660.278 17.235L671.322 25.8392L688.933 3.235H660.278V17.235ZM638.553 45.12V59.12H645.393L649.597 53.7242L638.553 45.12ZM615.123 45.12L602.556 38.9511L592.656 59.12H615.123V45.12ZM623.978 27.08L634.897 18.3178L621.114 1.14216L611.411 20.9111L623.978 27.08ZM627.553 31.535L616.634 40.2972L640.154 25.4345L627.553 31.535ZM624.198 24.605H610.198V27.8157L611.597 30.7055L624.198 24.605ZM624.198 24.55H638.198V21.3568L636.814 18.4794L624.198 24.55ZM608.688 49.135V35.135H600.957L596.839 41.6778L608.688 49.135ZM640.148 49.135L651.997 56.5922L665.501 35.135L640.148 35.135V49.135ZM635.198 57V71H642.929L647.047 64.4572L635.198 57ZM603.738 57L591.889 49.5428L578.385 71H603.738V57ZM620.678 31.235H660.278V3.235H620.678V31.235ZM649.234 8.63078L627.509 36.5158L649.597 53.7242L671.322 25.8392L649.234 8.63078ZM638.553 31.12H615.123V59.12H638.553V31.12ZM627.691 51.2889L636.546 33.2489L611.411 20.9111L602.556 38.9511L627.691 51.2889ZM613.059 35.8422L616.634 40.2972L638.472 22.7728L634.897 18.3178L613.059 35.8422ZM640.154 25.4345L636.799 18.5045L611.597 30.7055L614.952 37.6355L640.154 25.4345ZM638.198 24.605V24.55H610.198V24.605H638.198ZM636.814 18.4794L633.294 11.1644L608.063 23.3056L611.583 30.6206L636.814 18.4794ZM608.688 63.135H640.148V35.135H608.688V63.135ZM628.299 41.6778L623.349 49.5428L647.047 64.4572L651.997 56.5922L628.299 41.6778ZM635.198 43H603.738V71H635.198V43ZM615.587 64.4572L620.537 56.5922L596.839 41.6778L591.889 49.5428L615.587 64.4572ZM670.253 17.235V3.235H647.98L657.638 23.3056L670.253 17.235ZM709.853 17.235L720.897 25.8392L738.508 3.235H709.853V17.235ZM688.128 45.12V59.12H694.968L699.172 53.7242L688.128 45.12ZM664.698 45.12L652.131 38.9511L642.231 59.12H664.698V45.12ZM673.553 27.08L684.472 18.3178L670.689 1.14216L660.986 20.9111L673.553 27.08ZM677.128 31.535L666.209 40.2972L689.729 25.4345L677.128 31.535ZM673.773 24.605H659.773V27.8157L661.172 30.7055L673.773 24.605ZM673.773 24.55H687.773V21.3568L686.389 18.4794L673.773 24.55ZM658.263 49.135V35.135H650.533L646.415 41.6778L658.263 49.135ZM689.723 49.135L701.572 56.5922L715.076 35.135L689.723 35.135V49.135ZM684.773 57V71H692.504L696.622 64.4572L684.773 57ZM653.313 57L641.465 49.5428L627.96 71H653.313V57ZM670.253 31.235H709.853V3.235H670.253V31.235ZM698.809 8.63078L677.084 36.5158L699.172 53.7242L720.897 25.8392L698.809 8.63078ZM688.128 31.12H664.698V59.12H688.128V31.12ZM677.266 51.2889L686.121 33.2489L660.986 20.9111L652.131 38.9511L677.266 51.2889ZM662.634 35.8422L666.209 40.2972L688.047 22.7728L684.472 18.3178L662.634 35.8422ZM689.729 25.4345L686.374 18.5045L661.172 30.7055L664.527 37.6355L689.729 25.4345ZM687.773 24.605V24.55H659.773V24.605H687.773ZM686.389 18.4794L682.869 11.1644L657.638 23.3056L661.158 30.6206L686.389 18.4794ZM658.263 63.135H689.723V35.135H658.263V63.135ZM677.875 41.6778L672.925 49.5428L696.622 64.4572L701.572 56.5922L677.875 41.6778ZM684.773 43H653.313V71H684.773V43ZM665.162 64.4572L670.112 56.5922L646.415 41.6778L641.465 49.5428L665.162 64.4572ZM719.829 17.235V3.235H697.555L707.213 23.3056L719.829 17.235ZM759.429 17.235L770.472 25.8392L788.083 3.235H759.429V17.235ZM737.704 45.12V59.12H744.544L748.747 53.7242L737.704 45.12ZM714.274 45.12L701.706 38.9511L691.806 59.12H714.274V45.12ZM723.129 27.08L734.048 18.3178L720.265 1.14216L710.561 20.9111L723.129 27.08ZM726.704 31.535L715.785 40.2972L739.304 25.4345L726.704 31.535ZM723.349 24.605H709.349V27.8157L710.748 30.7055L723.349 24.605ZM723.349 24.55H737.349V21.3568L735.964 18.4794L723.349 24.55ZM707.839 49.135V35.135H700.108L695.99 41.6778L707.839 49.135ZM739.299 49.135L751.147 56.5922L764.652 35.135L739.299 35.135V49.135ZM734.349 57V71H742.079L746.197 64.4572L734.349 57ZM702.889 57L691.04 49.5428L677.535 71H702.889V57ZM719.829 31.235H759.429V3.235H719.829V31.235ZM748.385 8.63078L726.66 36.5158L748.747 53.7242L770.472 25.8392L748.385 8.63078ZM737.704 31.12H714.274V59.12H737.704V31.12ZM726.841 51.2889L735.696 33.2489L710.561 20.9111L701.706 38.9511L726.841 51.2889ZM712.21 35.8422L715.785 40.2972L737.623 22.7728L734.048 18.3178L712.21 35.8422ZM739.304 25.4345L735.949 18.5045L710.748 30.7055L714.103 37.6355L739.304 25.4345ZM737.349 24.605V24.55H709.349V24.605H737.349ZM735.964 18.4794L732.444 11.1644L707.213 23.3056L710.733 30.6206L735.964 18.4794ZM707.839 63.135H739.299V35.135H707.839V63.135ZM727.45 41.6778L722.5 49.5428L746.197 64.4572L751.147 56.5922L727.45 41.6778ZM734.349 43H702.889V71H734.349V43ZM714.737 64.4572L719.687 56.5922L695.99 41.6778L691.04 49.5428L714.737 64.4572Z" fill="black" mask="url(#path-3-outside-2_172_7496)"/>
<defs>
<linearGradient id="paint0_linear_172_7496" x1="395" y1="16" x2="395" y2="68" gradientUnits="userSpaceOnUse">
<stop stop-color="#FF0000"/>
<stop offset="0.4831" stop-color="#FF8A00"/>
<stop offset="1" stop-color="#FFF500"/>
</linearGradient>
</defs>
</svg>
