<?xml version="1.0" encoding="UTF-8"?>
<svg id="Calque_1" data-name="Calque 1" xmlns="http://www.w3.org/2000/svg" viewBox="0 0 437.9 237.97">
  <defs>
    <style>
      .cls-1, .cls-2 {
        fill: #c0d5d8;
      }

      .cls-2 {
        stroke: #c0d5d8;
        stroke-miterlimit: 10;
      }

      .cls-3 {
        fill: #ebf2f2;
        opacity: .46;
      }
    </style>
  </defs>
  <polygon class="cls-3" points="0 86.81 0 160.69 9.06 160.69 9.06 172.03 32.34 172.03 32.34 183.48 63.13 183.48 63.13 194.21 94.09 194.21 94.09 205.15 123.36 205.15 123.36 216.09 183.51 216.09 183.51 227.03 214.04 227.03 214.04 237.97 252.88 237.97 252.88 228.19 269.13 228.19 269.13 216.09 304.67 216.09 304.67 203.52 334.11 203.52 334.11 194.21 362.36 194.21 362.36 183.27 385.83 183.27 385.83 172.33 399.14 172.33 399.14 162.39 409.78 162.39 409.78 150.45 437.4 150.45 437.4 74.64 411.55 75.17 383.93 78.29 362.36 95.75 306.05 123.35 279.8 127.87 244.84 147.42 218.7 138.77 187.07 129.64 116.35 122.05 108.28 116.2 74.83 107.99 53.78 96.11 13.99 86.81 0 86.81"/>
  <polygon class="cls-3" points="21.7 69.52 45.85 61.53 68.2 53.99 103.92 42.88 157.82 17.69 188.14 7.12 252.88 10.24 267.29 18.65 297.37 22.18 307.02 27.29 334.11 31.41 350.39 39.06 380.29 43.05 411.55 53.29 429.84 70.76 392.82 82.29 377.5 91.93 355.22 97.05 334.27 111.03 321.64 113.46 303.35 119.41 280.6 130.57 257.46 135.69 230.19 145.28 218.7 135.69 192.28 135.69 179.86 122.66 157.84 124.53 145.98 124.53 127.29 123.22 122.78 124.53 118.45 119.63 112.24 119.41 95.03 112.95 88.53 111.35 83.9 110.22 74.83 107.99 74.83 107.99 71.74 106.25 70.9 102.87 66.58 102.52 66.58 102.52 61.89 100.69 56.76 99.05 56.76 89.93 56.76 86.81 14.48 86.81 14.48 75.17 37.41 75.17 21.7 69.52"/>
  <g id="contour_lasagna" data-name="contour lasagna">
    <rect class="cls-1" x="149.65" y="119.41" width="37.41" height="10.24"/>
    <rect class="cls-1" x="187.07" y="130.57" width="37.41" height="10.24"/>
    <rect class="cls-2" x="224.48" y="141.51" width="37.41" height="10.24"/>
    <rect class="cls-2" x="245.07" y="130.57" width="37.41" height="10.24"/>
    <rect class="cls-2" x="275.4" y="119.41" width="37.41" height="10.24"/>
    <rect class="cls-2" x="304.91" y="108.96" width="37.41" height="10.67"/>
    <rect class="cls-2" x="332.75" y="97.75" width="37.41" height="10.24"/>
    <rect class="cls-2" x="351.46" y="86.81" width="37.41" height="10.24"/>
    <rect class="cls-2" x="378.76" y="75.87" width="37.41" height="10.24"/>
    <rect class="cls-2" x="411.55" y="64.93" width="25.85" height="10.24"/>
    <rect class="cls-2" x="411.55" y="53.99" width="17.16" height="10.24"/>
    <rect class="cls-1" x="380.29" y="43.05" width="31.25" height="10.24"/>
    <rect class="cls-1" x="336.72" y="32.82" width="43.57" height="10.24"/>
    <rect class="cls-1" x="299.31" y="22.18" width="37.41" height="10.24"/>
    <rect class="cls-1" x="261.89" y="13.53" width="37.41" height="10.24"/>
    <rect class="cls-1" x="224.48" y="5.12" width="37.41" height="10.24"/>
    <rect class="cls-1" x="187.07" width="37.41" height="10.24"/>
    <rect class="cls-1" x="149.65" y="10.94" width="32.09" height="10.24"/>
    <rect class="cls-1" x="127.29" y="21.18" width="30.55" height="10.24"/>
    <rect class="cls-1" x="108.57" y="31.41" width="37.41" height="10.24"/>
    <rect class="cls-1" x="93.15" y="36.53" width="23.88" height="10.24"/>
    <rect class="cls-1" x="68.2" y="43.05" width="24.95" height="10.94"/>
    <rect class="cls-1" x="37.41" y="53.99" width="31.86" height="10.24"/>
    <rect class="cls-1" x="13.99" y="64.23" width="23.42" height="10.94"/>
    <rect class="cls-1" x="14.48" y="86.81" width="22.93" height="10.24"/>
    <rect class="cls-1" x="37.41" y="86.81" width="19.34" height="10.24"/>
    <rect class="cls-1" x="53.34" y="97.05" width="21.49" height="10.94"/>
    <rect class="cls-1" x="74.83" y="107.99" width="37.41" height="10.94"/>
    <rect class="cls-1" x="112.24" y="119.41" width="37.41" height="10.24"/>
    <rect class="cls-1" y="75.17" width="14.48" height="11.64"/>
    <rect class="cls-1" x="172.66" y="3.29" width="14.4" height="7.65"/>
  </g>
</svg>