<?xml version="1.0" encoding="UTF-8"?>
<svg id="Calque_1" data-name="Calque 1" xmlns="http://www.w3.org/2000/svg" viewBox="0 0 197.84 90.59">
  <defs>
    <style>
      .cls-1 {
        fill: #fff4e1;
      }

      .cls-2 {
        fill: #e8e0bf;
        stroke: #e8e0bf;
        stroke-miterlimit: 10;
      }
    </style>
  </defs>
  <g id="ail_oignons" data-name="ail oignons">
    <rect class="cls-2" x="153.4" y="60.8" width="9.98" height="9.98"/>
    <rect class="cls-2" x="139.14" y="58.59" width="9.98" height="9.98"/>
    <rect class="cls-2" x="131.67" y="44" width="9.98" height="9.98"/>
    <rect class="cls-2" x="114.52" y="47.75" width="9.98" height="9.98"/>
    <rect class="cls-2" x="121.49" y="59.5" width="9.98" height="9.98"/>
    <rect class="cls-2" x="122.67" y="74.06" width="9.98" height="9.98"/>
    <rect class="cls-2" x="113.71" y="36" width="9.98" height="9.98"/>
    <rect class="cls-1" x="98.41" y="45.44" width="9.98" height="9.98"/>
    <rect class="cls-1" x="105.61" y="80.61" width="9.98" height="9.98"/>
    <rect class="cls-1" x="102.5" y="29.83" width="9.98" height="9.98"/>
    <rect class="cls-1" y="51.81" width="9.98" height="9.98"/>
    <rect class="cls-1" x="4.08" y="36.2" width="9.98" height="9.98"/>
    <rect class="cls-1" x="183.78" y="37.66" width="9.98" height="9.98"/>
    <rect class="cls-1" x="187.87" y="22.05" width="9.98" height="9.98"/>
    <rect class="cls-2" x="125.19" y="23.87" width="9.98" height="9.98"/>
    <rect class="cls-2" x="146.43" y="44.22" width="9.98" height="9.98"/>
    <rect class="cls-2" x="163.62" y="45.44" width="9.98" height="9.98"/>
    <rect class="cls-2" x="138.29" y="29.42" width="9.98" height="9.98"/>
    <rect class="cls-2" x="171.32" y="32.71" width="9.98" height="9.98"/>
    <rect class="cls-2" x="155.33" y="29.83" width="9.98" height="9.98"/>
    <rect class="cls-2" x="66.82" y="61.24" width="9.98" height="9.98"/>
    <rect class="cls-2" x="52.56" y="59.03" width="9.98" height="9.98"/>
    <rect class="cls-2" x="45.09" y="44.44" width="9.98" height="9.98"/>
    <rect class="cls-2" x="109.53" y="13.27" width="9.98" height="9.98"/>
    <rect class="cls-2" x="124.12" y="12.42" width="9.98" height="9.98"/>
    <rect class="cls-2" x="34.73" y="56.38" width="9.98" height="9.98"/>
    <rect class="cls-2" x="16.62" y="57.26" width="9.98" height="9.98"/>
    <rect class="cls-2" x="27.13" y="36.44" width="9.98" height="9.98"/>
    <rect class="cls-2" x="36.09" y="27.19" width="9.98" height="9.98"/>
    <rect class="cls-2" x="59.85" y="44.66" width="9.98" height="9.98"/>
    <rect class="cls-2" x="77.03" y="45.88" width="9.98" height="9.98"/>
    <rect class="cls-2" x="51.7" y="29.86" width="9.98" height="9.98"/>
    <rect class="cls-2" x="84.74" y="33.15" width="9.98" height="9.98"/>
    <rect class="cls-2" x="68.75" y="30.27" width="9.98" height="9.98"/>
    <rect class="cls-2" x="65.29" y="14.89" width="9.98" height="9.98"/>
    <rect class="cls-2" x="82.47" y="16.11" width="9.98" height="9.98"/>
    <rect class="cls-2" x="90.17" y="3.38" width="9.98" height="9.98"/>
    <rect class="cls-2" x="74.19" y=".5" width="9.98" height="9.98"/>
    <rect class="cls-2" x="80.13" y="71.92" width="9.98" height="9.98"/>
    <rect class="cls-2" x="93.42" y="76.63" width="9.98" height="9.98"/>
    <rect class="cls-2" x="101.65" y="62.39" width="9.98" height="9.98"/>
    <rect class="cls-2" x="150.77" y="13.27" width="9.98" height="9.98"/>
    <rect class="cls-2" x="85.66" y="59.51" width="9.98" height="9.98"/>
  </g>
</svg>