<?xml version="1.0" encoding="UTF-8"?>
<svg id="Calque_1" data-name="Calque 1" xmlns="http://www.w3.org/2000/svg" viewBox="0 0 352.19 152.25">
  <defs>
    <style>
      .cls-1 {
        stroke: #000;
        stroke-miterlimit: 10;
      }

      .cls-2 {
        fill: #e79610;
      }

      .cls-3 {
        fill: #e6681e;
      }

      .cls-4 {
        fill: #fec408;
      }

      .cls-5 {
        fill: #fed406;
      }
    </style>
  </defs>
  <g id="lasagne">
    <g id="contour_lasagna" data-name="contour lasagna">
      <rect x="120.33" y="119.41" width="30.08" height="10.24"/>
      <rect x="150.41" y="130.57" width="30.08" height="10.24"/>
      <rect class="cls-1" x="180.49" y="141.51" width="30.08" height="10.24"/>
      <rect class="cls-1" x="197.05" y="130.57" width="30.08" height="10.24"/>
      <rect class="cls-1" x="221.44" y="119.41" width="30.08" height="10.24"/>
      <rect class="cls-1" x="245.16" y="108.96" width="30.08" height="10.67"/>
      <rect class="cls-1" x="267.55" y="97.75" width="30.08" height="10.24"/>
      <rect class="cls-1" x="282.59" y="86.81" width="30.08" height="10.24"/>
      <rect class="cls-1" x="304.54" y="75.87" width="30.08" height="10.24"/>
      <rect class="cls-1" x="330.9" y="64.93" width="20.79" height="10.24"/>
      <rect class="cls-1" x="330.9" y="53.99" width="13.8" height="10.24"/>
      <rect x="305.78" y="43.05" width="25.13" height="10.24"/>
      <rect x="270.74" y="32.82" width="35.04" height="10.24"/>
      <rect x="240.66" y="22.18" width="30.08" height="10.24"/>
      <rect x="210.58" y="13.53" width="30.08" height="10.24"/>
      <rect x="180.49" y="5.12" width="30.08" height="10.24"/>
      <rect x="150.41" width="30.08" height="10.24"/>
      <rect x="120.33" y="10.94" width="25.8" height="10.24"/>
      <rect x="102.35" y="21.18" width="24.56" height="10.24"/>
      <rect x="87.3" y="31.41" width="30.08" height="10.24"/>
      <rect x="74.9" y="36.53" width="19.2" height="10.24"/>
      <rect x="55.7" y="43.05" width="19.2" height="10.24"/>
      <rect x="30.08" y="53.99" width="25.61" height="10.24"/>
      <rect x="4.47" y="64.93" width="25.61" height="10.24"/>
      <rect x="4.47" y="86.81" width="25.61" height="10.24"/>
      <rect x="30.08" y="86.81" width="15.55" height="10.24"/>
      <rect x="42.89" y="97.05" width="17.28" height="10.94"/>
      <rect x="60.16" y="107.99" width="30.08" height="10.94"/>
      <rect x="90.25" y="119.41" width="30.08" height="10.24"/>
      <rect y="75.17" width="11.64" height="11.64"/>
      <rect x="138.83" y="3.29" width="11.58" height="7.65"/>
    </g>
    <g id="jaune_lasagne" data-name="jaune lasagne">
      <rect class="cls-5" x="11.64" y="75.17" width="18.44" height="11.64"/>
      <rect class="cls-5" x="30.08" y="77.99" width="18.44" height="8.82"/>
      <rect class="cls-5" x="45.63" y="77.99" width="27.75" height="9.53"/>
      <rect class="cls-5" x="45.63" y="87.52" width="24.86" height="9.53"/>
      <rect class="cls-5" x="69.97" y="87.52" width="24.86" height="9.53"/>
      <rect class="cls-5" x="92.86" y="53.99" width="24.86" height="43.76"/>
      <rect class="cls-5" x="60.16" y="97.05" width="34.67" height="10.94"/>
      <rect class="cls-5" x="94.54" y="97.4" width="34.67" height="10.94"/>
      <rect class="cls-5" x="128.8" y="97.4" width="34.67" height="10.94"/>
      <rect class="cls-5" x="117.38" y="31.41" width="37.62" height="65.99"/>
      <rect class="cls-5" x="153.78" y="17.88" width="38.83" height="79.52"/>
      <rect class="cls-5" x="150.41" y="97.4" width="42.2" height="33.17"/>
      <rect class="cls-5" x="192.61" y="23.76" width="28.83" height="105.88"/>
      <rect class="cls-5" x="221.44" y="32.82" width="23.72" height="86.59"/>
      <rect class="cls-5" x="241.06" y="32.41" width="29.68" height="65.08"/>
      <rect class="cls-5" x="239.13" y="97.05" width="28.42" height="11.8"/>
      <rect class="cls-5" x="270.21" y="43.05" width="12.38" height="54.43"/>
      <rect class="cls-5" x="282.59" y="43.05" width="21.59" height="43.76"/>
      <rect class="cls-5" x="301.82" y="53.29" width="29.37" height="22.07"/>
      <rect class="cls-5" x="276.4" y="43.05" width="29.37" height="20.85"/>
      <rect class="cls-5" x="148.33" y="21.18" width="7.05" height="79.52"/>
      <rect class="cls-5" x="120.33" y="108.34" width="34.67" height="11.07"/>
      <rect class="cls-5" x="179.86" y="129.64" width="17.33" height="11.46"/>
      <rect class="cls-2" x="90.25" y="107.99" width="30.08" height="11.42"/>
      <rect class="cls-5" x="60.16" y="90.62" width="24.86" height="9.53"/>
      <rect class="cls-4" x="55.7" y="57.04" width="26.7" height="20.95"/>
      <rect class="cls-4" x="30.08" y="64.23" width="27.45" height="13.76"/>
      <rect class="cls-4" x="74.9" y="46.76" width="27.45" height="7.23"/>
      <rect class="cls-4" x="55.7" y="51.88" width="37.16" height="35.64"/>
      <rect class="cls-4" x="94.1" y="41.65" width="23.28" height="12.35"/>
      <rect class="cls-4" x="126.39" y="21.18" width="22.55" height="10.24"/>
      <rect class="cls-4" x="146.13" y="10.94" width="7.65" height="10.24"/>
      <rect class="cls-4" x="150.41" y="10.24" width="30.08" height="7.65"/>
      <rect class="cls-4" x="192.61" y="14.82" width="19.63" height="8.94"/>
      <rect class="cls-4" x="221.44" y="23.76" width="19.63" height="8.94"/>
      <rect class="cls-4" x="162.53" y="14.82" width="30.08" height="3.06"/>
      <rect class="cls-3" x="197.35" y="119.41" width="24.08" height="10.97"/>
      <rect class="cls-3" x="221.44" y="110.1" width="23.72" height="9.31"/>
      <rect class="cls-3" x="186.32" y="91.48" width="11.04" height="11.04"/>
      <rect class="cls-3" x="163.54" y="90.71" width="9.31" height="9.31"/>
    </g>
  </g>
</svg>